<svg width="49" height="49" viewBox="0 0 49 49" fill="none" xmlns="http://www.w3.org/2000/svg">
<path fill-rule="evenodd" clip-rule="evenodd" d="M12.2503 24.5001C12.2503 24.9062 12.4116 25.2957 12.6987 25.5829C12.9859 25.87 13.3754 26.0314 13.7815 26.0314H31.5226L24.9474 32.6035C24.805 32.7458 24.6921 32.9149 24.615 33.1009C24.538 33.2869 24.4983 33.4863 24.4983 33.6876C24.4983 33.8889 24.538 34.0883 24.615 34.2743C24.6921 34.4603 24.805 34.6294 24.9474 34.7717C25.0897 34.9141 25.2588 35.027 25.4448 35.1041C25.6308 35.1811 25.8302 35.2208 26.0315 35.2208C26.2328 35.2208 26.4322 35.1811 26.6182 35.1041C26.8042 35.027 26.9733 34.9141 27.1156 34.7717L36.3031 25.5842C36.4457 25.442 36.5589 25.273 36.6361 25.087C36.7133 24.9009 36.753 24.7015 36.753 24.5001C36.753 24.2987 36.7133 24.0993 36.6361 23.9132C36.5589 23.7272 36.4457 23.5582 36.3031 23.416L27.1156 14.2285C26.8281 13.941 26.4381 13.7794 26.0315 13.7794C25.6249 13.7794 25.2349 13.941 24.9474 14.2285C24.6599 14.516 24.4983 14.906 24.4983 15.3126C24.4983 15.7192 24.6599 16.1092 24.9474 16.3967L31.5226 22.9689H13.7815C13.3754 22.9689 12.9859 23.1302 12.6987 23.4173C12.4116 23.7045 12.2503 24.094 12.2503 24.5001Z" fill="white"/>
</svg>
