<svg width="46" height="47" viewBox="0 0 46 47" fill="none" xmlns="http://www.w3.org/2000/svg">
<g clip-path="url(#clip0_1_861)">
<path fill-rule="evenodd" clip-rule="evenodd" d="M6.89991 44.1H39.1C41.6898 44.1 43.5298 42.9707 44.6476 41.4182C45.678 39.9853 46 38.3362 46 37.2V23.4C46 22.79 45.7577 22.205 45.3263 21.7736C44.895 21.3423 44.31 21.1 43.7 21.1H36.8V9.59997C36.8 7.76997 36.073 6.01492 34.779 4.72092C33.485 3.42692 31.73 2.69995 29.9 2.69995H6.89991C5.06991 2.69995 3.31486 3.42692 2.02086 4.72092C0.726857 6.01492 -0.000106812 7.76997 -0.000106812 9.59997V37.2C-0.000106812 38.3339 0.321894 39.9853 1.3523 41.4182C2.4701 42.973 4.3101 44.1 6.89991 44.1ZM39.1 25.7C39.71 25.7 40.295 25.9423 40.7263 26.3737C41.1577 26.805 41.4 27.39 41.4 28V37.2C41.4 37.81 41.1577 38.395 40.7263 38.8264C40.295 39.2577 39.71 39.5 39.1 39.5C38.49 39.5 37.905 39.2577 37.4736 38.8264C37.0423 38.395 36.8 37.81 36.8 37.2V28C36.8 27.39 37.0423 26.805 37.4736 26.3737C37.905 25.9423 38.49 25.7 39.1 25.7ZM16.0999 18.8C16.0999 18.19 16.3423 17.605 16.7736 17.1736C17.2049 16.7423 17.7899 16.5 18.3999 16.5C19.0099 16.5 19.5949 16.7423 20.0263 17.1736C20.4576 17.605 20.6999 18.19 20.6999 18.8C20.6999 19.41 20.4576 19.995 20.0263 20.4263C19.5949 20.8577 19.0099 21.1 18.3999 21.1C17.7899 21.1 17.2049 20.8577 16.7736 20.4263C16.3423 19.995 16.0999 19.41 16.0999 18.8ZM18.3999 11.9C16.5699 11.9 14.8149 12.6269 13.5209 13.9209C12.2269 15.2149 11.4999 16.97 11.4999 18.8C11.4999 20.63 12.2269 22.385 13.5209 23.679C14.8149 24.973 16.5699 25.7 18.3999 25.7C20.2299 25.7 21.985 24.973 23.279 23.679C24.573 22.385 25.2999 20.63 25.2999 18.8C25.2999 16.97 24.573 15.2149 23.279 13.9209C21.985 12.6269 20.2299 11.9 18.3999 11.9ZM11.4999 30.3C10.8899 30.3 10.3049 30.5423 9.87357 30.9737C9.44223 31.405 9.19991 31.99 9.19991 32.6C9.19991 33.21 9.44223 33.795 9.87357 34.2264C10.3049 34.6577 10.8899 34.9 11.4999 34.9H25.2999C25.9099 34.9 26.495 34.6577 26.9263 34.2264C27.3576 33.795 27.6 33.21 27.6 32.6C27.6 31.99 27.3576 31.405 26.9263 30.9737C26.495 30.5423 25.9099 30.3 25.2999 30.3H11.4999Z" fill="white"/>
</g>
<defs>
<clipPath id="clip0_1_861">
<rect width="46" height="46" fill="white" transform="translate(0 0.5)"/>
</clipPath>
</defs>
</svg>
