<svg width="46" height="47" viewBox="0 0 46 47" fill="none" xmlns="http://www.w3.org/2000/svg">
<path d="M34.5 4.81251C34.5005 4.52782 34.4165 4.2494 34.2586 4.01253C34.1006 3.77566 33.8759 3.59102 33.613 3.482C33.35 3.37299 33.0605 3.34452 32.7814 3.4002C32.5022 3.45588 32.2458 3.5932 32.0448 3.79476L26.2948 9.54476C26.1613 9.6785 26.0556 9.83723 25.9836 10.0119C25.9116 10.1865 25.8747 10.3736 25.875 10.5625V18.5924L23.7446 20.7199C23.3185 20.6068 22.872 20.593 22.4397 20.6797C22.0073 20.7663 21.6007 20.951 21.251 21.2196C20.9013 21.4882 20.6179 21.8335 20.4227 22.2288C20.2275 22.6242 20.1257 23.0591 20.125 23.5C20.1252 23.9092 20.2127 24.3136 20.3817 24.6862C20.5507 25.0588 20.7973 25.3911 21.105 25.6607C21.4127 25.9304 21.7744 26.1313 22.1659 26.25C22.5575 26.3687 22.9699 26.4025 23.3755 26.3491C23.7812 26.2956 24.1707 26.1562 24.5182 25.9402C24.8656 25.7241 25.163 25.4364 25.3903 25.0962C25.6177 24.756 25.7698 24.3712 25.8365 23.9676C25.9032 23.5639 25.883 23.1506 25.7773 22.7554L27.9076 20.625H35.9375C36.1264 20.6253 36.3135 20.5884 36.4881 20.5164C36.6628 20.4444 36.8215 20.3387 36.9553 20.2053L42.7052 14.4553C42.9068 14.2542 43.0441 13.9978 43.0998 13.7187C43.1555 13.4395 43.127 13.15 43.018 12.8871C42.909 12.6241 42.7243 12.3994 42.4875 12.2415C42.2506 12.0835 41.9722 11.9995 41.6875 12H34.5V4.81251ZM40.089 21.1368C40.5837 24.7166 39.9416 28.3614 38.2533 31.5567C36.5651 34.752 33.9159 37.3364 30.6798 38.945C27.4437 40.5536 23.784 41.1053 20.2175 40.522C16.651 39.9388 13.3578 38.2502 10.8026 35.6946C8.24746 33.1389 6.55949 29.8453 5.97697 26.2787C5.39444 22.7121 5.94679 19.0526 7.55605 15.8168C9.1653 12.581 11.7502 9.93229 14.9458 8.24464C18.1414 6.55699 21.7864 5.9156 25.3661 6.41101L24.265 7.51213C23.8641 7.91255 23.546 8.38804 23.329 8.91144C23.1119 9.43484 23.0001 9.99589 23 10.5625C20.4412 10.5625 17.9399 11.3213 15.8123 12.7429C13.6847 14.1645 12.0265 16.185 11.0473 18.549C10.0681 20.9131 9.8119 23.5144 10.3111 26.024C10.8103 28.5336 12.0425 30.8389 13.8518 32.6482C15.6611 34.4575 17.9664 35.6897 20.476 36.1889C22.9856 36.6881 25.5869 36.4319 27.951 35.4527C30.315 34.4735 32.3355 32.8153 33.7571 30.6877C35.1787 28.5601 35.9375 26.0588 35.9375 23.5C37.0809 23.499 38.177 23.044 38.985 22.235L40.089 21.1368ZM23 13.4375C21.0098 13.4375 19.0643 14.0277 17.4096 15.1333C15.7548 16.239 14.4651 17.8106 13.7035 19.6493C12.9419 21.4879 12.7426 23.5112 13.1308 25.4631C13.5191 27.415 14.4775 29.208 15.8847 30.6153C17.292 32.0225 19.085 32.9809 21.0369 33.3692C22.9888 33.7574 25.0121 33.5582 26.8508 32.7965C28.6894 32.0349 30.261 30.7452 31.3667 29.0904C32.4723 27.4357 33.0625 25.4902 33.0625 23.5H29.0979L28.7385 23.8594C28.6694 24.9639 28.283 26.025 27.6258 26.9153C26.9685 27.8056 26.0683 28.4874 25.0331 28.8787C23.998 29.2701 22.8719 29.3544 21.79 29.1216C20.7081 28.8888 19.7164 28.3487 18.9339 27.5661C18.1513 26.7836 17.6113 25.7919 17.3784 24.71C17.1456 23.6281 17.2299 22.502 17.6213 21.4669C18.0126 20.4317 18.6944 19.5315 19.5847 18.8743C20.475 18.217 21.5361 17.8306 22.6406 17.7615L23 17.4021V13.4375Z" fill="white"/>
</svg>
