<svg width="46" height="47" viewBox="0 0 46 47" fill="none" xmlns="http://www.w3.org/2000/svg">
<path d="M42.2841 17.75L17.25 42.7823C16.983 43.0493 16.6661 43.2611 16.3172 43.4057C15.9683 43.5502 15.5944 43.6246 15.2168 43.6246C14.8392 43.6246 14.4653 43.5502 14.1165 43.4057C13.7676 43.2611 13.4507 43.0493 13.1837 42.7823L3.71594 33.3163C3.4489 33.0493 3.23707 32.7324 3.09255 32.3835C2.94802 32.0347 2.87364 31.6608 2.87364 31.2832C2.87364 30.9056 2.94802 30.5316 3.09255 30.1828C3.23707 29.8339 3.4489 29.517 3.71594 29.25L8.95742 24.0085C9.02418 23.9417 9.10345 23.8887 9.1907 23.8525C9.27796 23.8163 9.37148 23.7977 9.46594 23.7977C9.56039 23.7977 9.65392 23.8163 9.74118 23.8525C9.82843 23.8887 9.9077 23.9417 9.97445 24.0085L16.233 30.267C16.3727 30.4067 16.5398 30.5161 16.7237 30.5883C16.9076 30.6605 17.1044 30.694 17.3019 30.6868C17.4993 30.6795 17.6932 30.6316 17.8713 30.5461C18.0494 30.4606 18.208 30.3393 18.3371 30.1898C18.5732 29.905 18.6932 29.5417 18.6732 29.1723C18.6532 28.8029 18.4947 28.4547 18.2293 28.197L12.0067 21.9744C11.8723 21.8397 11.7968 21.6572 11.7968 21.4668C11.7968 21.2765 11.8723 21.094 12.0067 20.9592L14.702 18.2639C14.7688 18.1971 14.8481 18.1441 14.9353 18.1079C15.0226 18.0717 15.1161 18.0531 15.2105 18.0531C15.305 18.0531 15.3985 18.0717 15.4858 18.1079C15.573 18.1441 15.6523 18.1971 15.7191 18.2639L21.9776 24.5224C22.1173 24.6621 22.2844 24.7714 22.4683 24.8437C22.6522 24.9159 22.849 24.9494 23.0465 24.9422C23.2439 24.9349 23.4378 24.887 23.6159 24.8015C23.794 24.716 23.9526 24.5947 24.0817 24.4451C24.3178 24.1604 24.4378 23.797 24.4178 23.4277C24.3979 23.0583 24.2393 22.7101 23.9739 22.4524L17.7585 16.2244C17.6241 16.0897 17.5486 15.9072 17.5486 15.7168C17.5486 15.5265 17.6241 15.344 17.7585 15.2092L20.4538 12.5139C20.5886 12.3795 20.7711 12.304 20.9614 12.304C21.1518 12.304 21.3343 12.3795 21.4691 12.5139L27.7276 18.7724C27.8674 18.9124 28.0345 19.022 28.2186 19.0944C28.4027 19.1668 28.5997 19.2004 28.7974 19.1931C28.9951 19.1859 29.1891 19.1379 29.3674 19.0522C29.5457 18.9665 29.7044 18.845 29.8335 18.6951C30.0694 18.4102 30.1891 18.0467 30.1688 17.6773C30.1484 17.308 29.9896 16.9598 29.7239 16.7024L23.5085 10.4744C23.3741 10.3397 23.2986 10.1572 23.2986 9.96683C23.2986 9.77651 23.3741 9.59395 23.5085 9.45921L28.75 4.21773C29.017 3.95069 29.3339 3.73886 29.6828 3.59434C30.0317 3.44981 30.4056 3.37543 30.7832 3.37543C31.1608 3.37543 31.5347 3.44981 31.8835 3.59434C32.2324 3.73886 32.5494 3.95069 32.8163 4.21773L42.2841 13.6837C42.5511 13.9506 42.7629 14.2676 42.9075 14.6165C43.052 14.9653 43.1264 15.3392 43.1264 15.7168C43.1264 16.0944 43.052 16.4683 42.9075 16.8172C42.7629 17.166 42.5511 17.483 42.2841 17.75Z" fill="white"/>
</svg>
