<svg width="15" height="14" viewBox="0 0 15 14" fill="none" xmlns="http://www.w3.org/2000/svg">
<path fill-rule="evenodd" clip-rule="evenodd" d="M0 6.53216C0 6.28471 0.0982978 6.0474 0.273269 5.87243C0.44824 5.69746 0.685551 5.59916 0.932997 5.59916H11.7427L7.73641 1.59474C7.56122 1.41955 7.4628 1.18193 7.4628 0.934176C7.4628 0.686417 7.56122 0.448806 7.73641 0.273614C7.9116 0.098422 8.14921 0 8.39697 0C8.64473 0 8.88234 0.098422 9.05754 0.273614L14.6555 5.8716C14.7424 5.95826 14.8113 6.06122 14.8584 6.17457C14.9054 6.28792 14.9296 6.40944 14.9296 6.53216C14.9296 6.65488 14.9054 6.77639 14.8584 6.88974C14.8113 7.00309 14.7424 7.10605 14.6555 7.19272L9.05754 12.7907C8.88234 12.9659 8.64473 13.0643 8.39697 13.0643C8.14921 13.0643 7.9116 12.9659 7.73641 12.7907C7.56122 12.6155 7.4628 12.3779 7.4628 12.1301C7.4628 11.8824 7.56122 11.6448 7.73641 11.4696L11.7427 7.46516H0.932997C0.685551 7.46516 0.44824 7.36686 0.273269 7.19189C0.0982978 7.01692 0 6.7796 0 6.53216Z" fill="#3461FF"/>
</svg>
